<svg xmlns="http://www.w3.org/2000/svg" xmlns:xlink="http://www.w3.org/1999/xlink" id="processonSvg1000" viewBox="42.0 90.5 1097.0 581.5" width="1097.0" height="581.5"><defs id="ProcessOnDefs1001"><marker id="ProcessOnMarker1053" markerUnits="userSpaceOnUse" orient="auto" markerWidth="16.23606797749979" markerHeight="10.550836550532098" viewBox="-1.0 -1.3763819204711736 16.23606797749979 10.550836550532098" refX="-1.0" refY="3.8990363547948754"><path id="ProcessOnPath1054" d="M12.0 3.8990363547948754L0.0 7.798072709589751V0.0Z" stroke="#323232" stroke-width="2.0" fill="#323232" transform="matrix(1.0,0.0,0.0,1.0,0.0,0.0)"/></marker></defs><g id="ProcessOnG1002"><path id="ProcessOnPath1003" d="M42.0 90.5H1139.0V672.0H42.0V90.5Z" fill="#ffffff"/><g id="ProcessOnG1004"><g id="ProcessOnG1005" transform="matrix(1.0,0.0,0.0,1.0,429.0,128.0)" opacity="1.0"><path id="ProcessOnPath1006" d="M0.0 4.0Q0.0 0.0 4.0 0.0L206.0 0.0Q210.0 0.0 210.0 4.0L210.0 146.0Q210.0 150.0 206.0 150.0L4.0 150.0Q0.0 150.0 0.0 146.0Z" stroke="#323232" stroke-width="2.0" stroke-dasharray="none" fill="#ffffed"/><path id="ProcessOnPath1007" d="M0.0 30.0L210.0 30.0" stroke="#323232" stroke-width="2.0" stroke-dasharray="none" fill="none"/><path id="ProcessOnPath1008" d="M0.0 0.0L210.0 0.0L210.0 150.0L0.0 150.0Z" stroke="none" stroke-width="0.0" stroke-dasharray="none" fill="none"/><g id="ProcessOnG1009" transform="matrix(1.0,0.0,0.0,1.0,10.0,6.875)"><text id="ProcessOnText1010" fill="#ff8000" font-size="13" x="94.0" y="13.325" font-family="Arial" font-weight="normal" font-style="normal" text-decoration="none" family="Arial" text-anchor="middle" size="13">Hotkey</text></g><g id="ProcessOnG1011" transform="matrix(1.0,0.0,0.0,1.0,10.0,57.5)"><text id="ProcessOnText1012" fill="#ff8000" font-size="13" x="94.0" y="13.325" font-family="Arial" font-weight="normal" font-style="normal" text-decoration="none" family="Arial" text-anchor="middle" size="13">- flag : String</text><text id="ProcessOnText1013" fill="#ff8000" font-size="13" x="94.0" y="29.575" font-family="Arial" font-weight="normal" font-style="normal" text-decoration="none" family="Arial" text-anchor="middle" size="13">- scope : String</text><text id="ProcessOnText1014" fill="#ff8000" font-size="13" x="94.0" y="45.825" font-family="Arial" font-weight="normal" font-style="normal" text-decoration="none" family="Arial" text-anchor="middle" size="13">- next : String</text><text id="ProcessOnText1015" fill="#ff8000" font-size="13" x="94.0" y="62.075" font-family="Arial" font-weight="normal" font-style="normal" text-decoration="none" family="Arial" text-anchor="middle" size="13">- bubble : Bool</text></g></g><g id="ProcessOnG1016" transform="matrix(1.0,0.0,0.0,1.0,686.0,128.0)" opacity="1.0"><path id="ProcessOnPath1017" d="M0.0 0.0L292.0 0.0L308.0 16.0L308.0 142.0L0.0 142.0L0.0 0.0Z" stroke="#323232" stroke-width="2.0" stroke-dasharray="none" fill="#ffffed"/><path id="ProcessOnPath1018" d="M292.0 0.0L292.0 16.0L308.0 16.0" stroke="#323232" stroke-width="2.0" stroke-dasharray="none" fill="#ffffed"/><path id="ProcessOnPath1019" d="M0.0 0.0L292.0 0.0L308.0 16.0L308.0 142.0L0.0 142.0L0.0 0.0Z" stroke="#323232" stroke-width="2.0" stroke-dasharray="none" fill="none"/><g id="ProcessOnG1020" transform="matrix(1.0,0.0,0.0,1.0,10.0,30.375)"><text id="ProcessOnText1021" fill="#ff8000" font-size="13" x="143.0" y="13.325" font-family="Arial" font-weight="normal" font-style="normal" text-decoration="none" family="Arial" text-anchor="middle" size="13">flag  : hotkey显示的标题</text><text id="ProcessOnText1022" fill="#ff8000" font-size="13" x="143.0" y="29.575" font-family="Arial" font-weight="normal" font-style="normal" text-decoration="none" family="Arial" text-anchor="middle" size="13">scope：当前Scope</text><text id="ProcessOnText1023" fill="#ff8000" font-size="13" x="143.0" y="45.825" font-family="Arial" font-weight="normal" font-style="normal" text-decoration="none" family="Arial" text-anchor="middle" size="13">next : 下一个Scope</text><text id="ProcessOnText1024" fill="#ff8000" font-size="13" x="143.0" y="62.075" font-family="Arial" font-weight="normal" font-style="normal" text-decoration="none" family="Arial" text-anchor="middle" size="13">bubble :  事件是否冒泡默认false</text><text id="ProcessOnText1025" fill="#ff8000" font-size="13" x="143.0" y="78.325" font-family="Arial" font-weight="normal" font-style="normal" text-decoration="none" family="Arial" text-anchor="middle" size="13">(即DOM元素上默认可以没有data-bubble）</text></g></g><g id="ProcessOnG1026" transform="matrix(1.0,0.0,0.0,1.0,371.0,371.0)" opacity="1.0"><path id="ProcessOnPath1027" d="M18.0 0.0Q9.0 0.0 9.0 9.0L9.0 36.5Q9.0 45.5 0.0 45.5Q9.0 45.5 9.0 54.5L9.0 82.0Q9.0 91.0 18.0 91.0" stroke="#323232" stroke-width="2.0" stroke-dasharray="none" fill="none"/><path id="ProcessOnPath1028" d="M730.0 91.0Q739.0 91.0 739.0 82.0L739.0 54.5Q739.0 45.5 748.0 45.5Q739.0 45.5 739.0 36.5L739.0 9.0Q739.0 0.0 730.0 0.0" stroke="#323232" stroke-width="2.0" stroke-dasharray="none" fill="none"/><path id="ProcessOnPath1029" d="M0.0 0.0L748.0 0.0L748.0 91.0L0.0 91.0Z" stroke="none" stroke-width="0.0" stroke-dasharray="none" fill="none"/><g id="ProcessOnG1030" transform="matrix(1.0,0.0,0.0,1.0,10.0,37.375)"><text id="ProcessOnText1031" fill="#0000cc" font-size="13" x="363.0" y="13.325" font-family="Arial" font-weight="normal" font-style="normal" text-decoration="none" family="Arial" text-anchor="middle" size="13"> &lt;a data-flag="A" data-next="scope31" data-scope="scope2" data-bubble="false" href="javascript:;"&gt;hot&lt;/a&gt;</text></g></g><g id="ProcessOnG1032" transform="matrix(1.0,0.0,0.0,1.0,380.0,506.0)" opacity="1.0"><path id="ProcessOnPath1033" d="M0.0 0.0L652.0 0.0L668.0 16.0L668.0 100.0L0.0 100.0L0.0 0.0Z" stroke="#323232" stroke-width="2.0" stroke-dasharray="none" fill="#ffffed"/><path id="ProcessOnPath1034" d="M652.0 0.0L652.0 16.0L668.0 16.0" stroke="#323232" stroke-width="2.0" stroke-dasharray="none" fill="#ffffed"/><path id="ProcessOnPath1035" d="M0.0 0.0L652.0 0.0L668.0 16.0L668.0 100.0L0.0 100.0L0.0 0.0Z" stroke="#323232" stroke-width="2.0" stroke-dasharray="none" fill="none"/><g id="ProcessOnG1036" transform="matrix(1.0,0.0,0.0,1.0,10.0,41.875)"><text id="ProcessOnText1037" fill="#cc6600" font-size="13" x="323.0" y="13.325" font-family="Arial" font-weight="normal" font-style="normal" text-decoration="none" family="Arial" text-anchor="middle" size="13">Hotkey 实例用DOM 元素表示，实例属性对应 html 中的 data-XX 属性</text></g></g><g id="ProcessOnG1038" transform="matrix(1.0,0.0,0.0,1.0,87.0,110.5)" opacity="1.0"><path id="ProcessOnPath1039" d="M0.0 92.5C0.0 -30.833333333333332 184.0 -30.833333333333332 184.0 92.5C184.0 215.83333333333334 0.0 215.83333333333334 0.0 92.5Z" stroke="#323232" stroke-width="2.0" stroke-dasharray="none" fill="#ffffed"/><g id="ProcessOnG1040" transform="matrix(1.0,0.0,0.0,1.0,10.0,84.375)"><text id="ProcessOnText1041" fill="#323232" font-size="13" x="81.0" y="13.325" font-family="Arial" font-weight="normal" font-style="normal" text-decoration="none" family="Arial" text-anchor="middle" size="13">Scope</text></g></g><g id="ProcessOnG1042" transform="matrix(1.0,0.0,0.0,1.0,62.0,515.0)" opacity="1.0"><path id="ProcessOnPath1043" d="M0.0 0.0L234.0 0.0L250.0 16.0L250.0 137.0L0.0 137.0L0.0 0.0Z" stroke="#323232" stroke-width="2.0" stroke-dasharray="none" fill="#ffffed"/><path id="ProcessOnPath1044" d="M234.0 0.0L234.0 16.0L250.0 16.0" stroke="#323232" stroke-width="2.0" stroke-dasharray="none" fill="#ffffed"/><path id="ProcessOnPath1045" d="M0.0 0.0L234.0 0.0L250.0 16.0L250.0 137.0L0.0 137.0L0.0 0.0Z" stroke="#323232" stroke-width="2.0" stroke-dasharray="none" fill="none"/><g id="ProcessOnG1046" transform="matrix(1.0,0.0,0.0,1.0,10.0,52.25)"><text id="ProcessOnText1047" fill="#323232" font-size="13" x="114.0" y="13.325" font-family="Arial" font-weight="normal" font-style="normal" text-decoration="none" family="Arial" text-anchor="middle" size="13">Scope为一个抽象集合每个Scope中有多个Hot</text><text id="ProcessOnText1048" fill="#323232" font-size="13" x="114.0" y="29.575" font-family="Arial" font-weight="normal" font-style="normal" text-decoration="none" family="Arial" text-anchor="middle" size="13">key 实例</text></g></g><g id="ProcessOnG1049"><path id="ProcessOnPath1050" d="M179.0 295.5L179.0 405.25L179.0 405.25L179.0 515.0" stroke="#323232" stroke-width="2.0" stroke-dasharray="none" fill="none"/></g><g id="ProcessOnG1051"><path id="ProcessOnPath1052" d="M271.0 203.0L350.0 203.0L350.0 203.0L413.7639320225002 203.0" stroke="#323232" stroke-width="2.0" stroke-dasharray="none" fill="none" marker-end="url(#ProcessOnMarker1053)"/></g><g id="ProcessOnG1055" transform="matrix(1.0,0.0,0.0,1.0,204.0,161.0)" opacity="1.0"><path id="ProcessOnPath1056" d="M0.0 0.0L160.0 0.0L160.0 40.0L0.0 40.0Z" stroke="none" stroke-width="0.0" stroke-dasharray="none" fill="none"/><g id="ProcessOnG1057" transform="matrix(1.0,0.0,0.0,1.0,0.0,11.875)"><text id="ProcessOnText1058" fill="#323232" font-size="13" x="79.0" y="13.325" font-family="Arial" font-weight="normal" font-style="normal" text-decoration="none" family="Arial" text-anchor="middle" size="13">1...1</text></g></g><g id="ProcessOnG1059" transform="matrix(1.0,0.0,0.0,1.0,316.0,207.0)" opacity="1.0"><path id="ProcessOnPath1060" d="M0.0 0.0L160.0 0.0L160.0 40.0L0.0 40.0Z" stroke="none" stroke-width="0.0" stroke-dasharray="none" fill="none"/><g id="ProcessOnG1061" transform="matrix(1.0,0.0,0.0,1.0,0.0,11.875)"><text id="ProcessOnText1062" fill="#323232" font-size="13" x="79.0" y="13.325" font-family="Arial" font-weight="normal" font-style="normal" text-decoration="none" family="Arial" text-anchor="middle" size="13">0...*</text></g></g></g></g></svg>